<svg xmlns="http://www.w3.org/2000/svg" viewBox="0 0 1767.733 310.283"><defs><style>.a{fill:#fff;}.b{fill:#843c23;}</style></defs><title>logo</title><path class="a" d="M766.511,791.4q0,29.883-21.084,51.133t-50.635,21.25H623.073V560.971h71.719q29.883,0,50.8,21.25t20.918,50.967V791.4Zm-97.783,27.227H696.2a24.265,24.265,0,0,0,18.371-7.886,26.083,26.083,0,0,0,7.447-18.511V633.852a25.434,25.434,0,0,0-7.613-18.511,24.675,24.675,0,0,0-18.2-7.72H668.728V818.627Z" transform="translate(-623.073 -557.318)"/><path class="a" d="M806.521,863.783V560.971h129.99v45.654H852.175v83.008h61.592v45.654H852.175v82.842h84.336v45.654H806.521Z" transform="translate(-623.073 -557.318)"/><path class="a" d="M1021.843,863.783L967.888,560.971H1015.7l37.852,235.742,38.35-235.742h47.813l-54.951,302.813h-62.92Z" transform="translate(-623.073 -557.318)"/><path class="a" d="M1178.063,863.783V560.971h129.99v45.654h-84.335v83.008h61.591v45.654h-61.591v82.842h84.335v45.654h-129.99Z" transform="translate(-623.073 -557.318)"/><path class="a" d="M1463.941,863.783H1339.43V560.971h45.654v257.49h78.857v45.322Z" transform="translate(-623.073 -557.318)"/><path class="a" d="M1567.2,557.318q30.214,0,51.382,21.25t21.167,51.3V795.053q0,30.218-21.25,51.382T1567.2,867.6q-30.05,0-51.05-21.25t-21-51.3V629.867q0-30.214,21.25-51.382T1567.2,557.318Zm24.9,71.7a25.786,25.786,0,0,0-26.064-26.044,25.536,25.536,0,0,0-18.511,7.548,24.871,24.871,0,0,0-7.72,18.5V794.741a24.946,24.946,0,0,0,7.72,18.413,25.386,25.386,0,0,0,18.511,7.631,25.924,25.924,0,0,0,26.064-26.044V629.017Z" transform="translate(-623.073 -557.318)"/><path class="b" d="M1679.762,863.783V560.971h68.232a87,87,0,0,1,48.809,14.277q18.592,12.12,26.563,37.354,4.315,13.614,4.316,32.207,0,30.381-16.1,48.809a47.461,47.461,0,0,1-15.937,11.787q15.105,5.813,25.732,22.91,7.137,11.622,10.459,29.883a122.677,122.677,0,0,1,1.66,21.084q0,28.723-10.791,48.809a65.77,65.77,0,0,1-23.906,25.068q-17.432,10.626-34.531,10.625h-84.5ZM1728.9,684.652h19.092q21.249,0,28.555-20.752,2.654-7.8,2.656-19.092,0-18.926-9.131-28.555-8.467-8.965-22.08-8.965H1728.9v77.363Zm0,133.975h19.092q23.241,0,32.207-23.906a51.68,51.68,0,0,0,3.154-18.76q0-25.4-9.795-37.021-8.634-10.622-25.566-10.625H1728.9v90.313Z" transform="translate(-623.073 -557.318)"/><path class="b" d="M1873,863.783V560.971h129.99v45.654h-84.336v83.008h61.592v45.654h-61.592v82.842h84.336v45.654H1873Z" transform="translate(-623.073 -557.318)"/><path class="b" d="M2092.975,794.223l-11.123,69.561h-47.48l51.3-302.812h62.92l50.635,302.813h-47.812l-10.791-69.561h-47.646Zm23.906-163.857L2099.947,749.73h33.867Z" transform="translate(-623.073 -557.318)"/><path class="b" d="M2309.625,560.971q38.183,0,55.947,21.084,15.771,18.428,15.771,51.133v43.994q0,32.21-24.363,54.287l33.826,132.314h-49.239L2313.724,749.4q-1.992.167-4.143,0.166h-26.187V863.783H2237.74V560.971h71.885Zm27.227,73.047q0-26.4-25.984-26.4h-27.473v96.787h27.473a24.789,24.789,0,0,0,18.454-7.72,25.569,25.569,0,0,0,7.53-18.511v-44.16Z" transform="translate(-623.073 -557.318)"/><path class="b" d="M1773.762,723.971s11.13-21.117,49.141-19.029c0,0-45.381,20.885-24.57,38.985S1773.762,723.971,1773.762,723.971Z" transform="translate(-623.073 -557.318)"/><path class="b" d="M1791.762,753.971s11.13-21.117,49.141-19.029c0,0-45.381,20.885-24.57,38.985S1791.762,753.971,1791.762,753.971Z" transform="translate(-623.073 -557.318)"/><path class="b" d="M1786.423,724.435s36.148-17.907,57.782-7.658c0,0-30.771,13.227-21.3,24.366s-49.141-17.172-49.141-17.172" transform="translate(-623.073 -557.318)"/><path class="b" d="M1810.687,745.288s22.8-7.062,48.2,21.292c0,0-46.857-17.322-44.941,10.193S1810.687,745.288,1810.687,745.288Z" transform="translate(-623.073 -557.318)"/><path class="b" d="M1804.2,783.229s22.8-7.062,48.2,21.292c0,0-46.857-17.322-44.941,10.193S1804.2,783.229,1804.2,783.229Z" transform="translate(-623.073 -557.318)"/><path class="b" d="M1821.312,758.569s38.223,12.9,46.273,35.443c0,0-31.111-12.405-32.292,2.166s-22.605-46.89-22.605-46.89" transform="translate(-623.073 -557.318)"/><path class="b" d="M1829.745,805.46s13.693,7.217,12.339,31.864c0,0-13.542-29.426-25.279-15.932S1829.745,805.46,1829.745,805.46Z" transform="translate(-623.073 -557.318)"/><path class="b" d="M1809.376,819.883s13.693,7.217,12.339,31.864c0,0-13.542-29.426-25.279-15.932S1809.376,819.883,1809.376,819.883Z" transform="translate(-623.073 -557.318)"/><path class="b" d="M1828.528,816.421s11.611,23.439,4.965,37.467c0,0-8.577-19.952-15.8-13.813s11.135-31.864,11.135-31.864" transform="translate(-623.073 -557.318)"/></svg>