<svg version="1" xmlns="http://www.w3.org/2000/svg" width="266.667" height="266.667" viewBox="0 0 200.000000 200.000000"><path d="M94.2 30.3c-3 1.7-6.7 3.9-8.2 4.8-1.6.9-4.1 2.4-5.5 3.3-2.4 1.5-2.9 1.6-4.3.3-8.2-7.1-20-5.9-25.2 2.5-3.7 6-2.1 15.6 3.4 20.7l2.3 2.2-3.9 8c-4.9 9.9-12.9 34-15.9 47.9-1.8 8.4-2.7 10.9-4.8 12.6-2.2 1.9-2.5 2.9-2.5 7.8.1 4.7.7 6.5 3.1 9.9 3.5 4.8 6.9 12.6 10.8 24.7 1.5 4.7 3.7 9.3 4.8 10.4 2 1.7 15.7 8.6 17.1 8.6 1.2 0 .5-4.8-1.9-13.9-4.4-16.5-9.1-26.3-19-39.8l-1.6-2.1 7.3 1.9c9.7 2.5 27.4 5.5 37.5 6.4l8.3.7-2 2.5c-3.2 4.1-2.4 8 2.7 13.4l2.4 2.6-1.5 14.8c-.9 8.1-1.6 15.9-1.6 17.3v2.5l8.5-.5c4.7-.2 8.7-.7 9.1-1 .3-.4-.3-7.9-1.5-16.8l-2.1-16.3 2.5-1.9c5.4-4.2 6.9-10.7 3.5-14.3l-2.1-2.2 8.8-.7c10.7-.9 25.8-3.8 36.1-7.1 4.2-1.4 8.1-2.5 8.5-2.5.4 0-1.5 2.9-4.2 6.5-7.7 10-13.9 24.2-17.5 39.6-1.7 7-1.8 7 7.3 1.6 9.8-5.8 13.4-10.1 17.6-21 2-5.4 4.9-11.2 6.2-12.8 4.4-5.2 5.1-15.5 1.3-18.2-1-.7-2.4-4.3-3.4-9.2-4.5-21-12.1-43.5-18.4-54.5l-3-5.3 3.3-3.1c6.5-6.1 6.7-16.3.4-22.5-4.9-5-15.2-5.5-21.2-1.1l-2.9 2.2-5.2-2.5c-2.8-1.4-6.5-2.9-8.1-3.3-4.2-1-4.9-1.5-3.4-2.5.9-.6-.1-.9-2.9-.9-3 0-4.1-.4-3.6-1.2.8-1.2-5.3-.7-9.1.8-1.8.7-1.8.6-.6-.9 2-2.5.2-2-5.7 1.6zM70.1 41.9l2.4 2-3.1 3.3c-1.7 1.8-4.5 5.2-6.3 7.6-3.1 4-3.5 4.2-5.1 2.7-7-6.3-3.3-17.5 5.8-17.5 2.4 0 4.9.8 6.3 1.9zm82.2.1c3.4 2.7 4.4 7.8 2.2 11.9-2.2 4.3-4.2 4.9-6.3 2-.9-1.3-3.7-4.6-6.1-7.3l-4.6-4.8 2.4-1.9c3.1-2.5 9.1-2.5 12.4.1zM94.5 70c-.5.8-1.1.8-1.7.2-.6-.6-.7-1.6-.3-2.2.5-.8 1.1-.8 1.7-.2.6.6.7 1.6.3 2.2zm26 0c-.5.8-1.1.8-1.7.2-.6-.6-.7-1.6-.3-2.2.5-.8 1.1-.8 1.7-.2.6.6.7 1.6.3 2.2zm-5.8 9.1c2.7 2.6 3.1 7.5.8 11.8-2 3.9-7.2 8.1-10 8.1-3.4 0-9.1-5.4-11-10.4-1.5-4-1.5-4.6-.1-7.5 2-3.7 6.2-5.2 13-4.6 3.2.3 5.7 1.2 7.3 2.6z"/><path d="M99.4 82.5c-.4.8.1 2.6 1 4 3.1 4.7 10.6 2.5 10.6-3.1 0-2.3-.3-2.4-5.5-2.4-4 0-5.7.4-6.1 1.5zM191.7 99.1c-4.1 2.4-4.7 5.8-4.7 27.6.1 18.5.2 20.6 1.5 18.9 4.3-5.6 9.4-24.8 10.2-37.9l.6-9.7h-2.9c-1.6 0-3.7.5-4.7 1.1z"/></svg>